G75*
%MOMM*%
%OFA0B0*%
%FSLAX33Y33*%
%IPPOS*%
%LPD*%
%AMOC8*
5,1,8,0,0,1.08239X$1,22.5*
%
%ADD10C,1.203*%
%ADD11R,3.203X6.203*%
%ADD12C,1.854*%
%ADD13R,1.854X1.854*%
%ADD14C,1.524*%
%ADD15C,2.083*%
%ADD16C,1.524*%
%ADD17C,1.829*%
D10*
X02833Y03020D03*
X25859Y40546D03*
D11*
X35774Y28724D03*
X30774Y28724D03*
D12*
X34544Y37084D03*
D13*
X32004Y37084D03*
D14*
X14884Y21723D02*
X13564Y21723D01*
X13564Y19183D02*
X14884Y19183D01*
X14884Y06483D02*
X13564Y06483D01*
X13564Y03943D02*
X14884Y03943D01*
X14884Y16643D02*
X13564Y16643D01*
X13564Y14103D02*
X14884Y14103D01*
X14884Y09023D02*
X13564Y09023D01*
X13564Y11563D02*
X14884Y11563D01*
X21184Y03943D02*
X22504Y03943D01*
X22504Y06483D02*
X21184Y06483D01*
X21184Y09023D02*
X22504Y09023D01*
X22504Y11563D02*
X21184Y11563D01*
X21184Y14103D02*
X22504Y14103D01*
X22504Y16643D02*
X21184Y16643D01*
X21184Y19183D02*
X22504Y19183D01*
X22504Y21723D02*
X21184Y21723D01*
D15*
X06604Y20453D03*
X06604Y05213D03*
X37084Y47244D03*
X29464Y47244D03*
X37084Y43434D03*
X29464Y43434D03*
X08865Y47955D03*
X08865Y41453D03*
X04343Y47955D03*
X04343Y41453D03*
X06604Y28194D03*
X06604Y30734D03*
X06604Y33274D03*
D16*
X14224Y44704D03*
X16764Y44704D03*
X20574Y44704D03*
X23114Y44704D03*
D17*
X14224Y37084D03*
X14224Y34544D03*
X21844Y34544D03*
X21844Y37084D03*
X14224Y32004D03*
X14224Y29464D03*
X21844Y32004D03*
X21844Y29464D03*
M02*
