G75*
%MOMM*%
%OFA0B0*%
%FSLAX33Y33*%
%IPPOS*%
%LPD*%
%AMOC8*
5,1,8,0,0,1.08239X$1,22.5*
%
%ADD10C,0.000*%
D10*
X00254Y00254D02*
X42144Y00254D01*
X42144Y51994D01*
X00254Y51994D01*
X00254Y00254D01*
X02333Y03020D02*
X02335Y03064D01*
X02341Y03108D01*
X02351Y03151D01*
X02364Y03193D01*
X02381Y03234D01*
X02402Y03273D01*
X02426Y03310D01*
X02453Y03345D01*
X02483Y03377D01*
X02516Y03407D01*
X02552Y03433D01*
X02589Y03457D01*
X02629Y03476D01*
X02670Y03493D01*
X02713Y03505D01*
X02756Y03514D01*
X02800Y03519D01*
X02844Y03520D01*
X02888Y03517D01*
X02932Y03510D01*
X02975Y03499D01*
X03017Y03485D01*
X03057Y03467D01*
X03096Y03445D01*
X03132Y03421D01*
X03166Y03393D01*
X03198Y03362D01*
X03227Y03328D01*
X03253Y03292D01*
X03275Y03254D01*
X03294Y03214D01*
X03309Y03172D01*
X03321Y03130D01*
X03329Y03086D01*
X03333Y03042D01*
X03333Y02998D01*
X03329Y02954D01*
X03321Y02910D01*
X03309Y02868D01*
X03294Y02826D01*
X03275Y02786D01*
X03253Y02748D01*
X03227Y02712D01*
X03198Y02678D01*
X03166Y02647D01*
X03132Y02619D01*
X03096Y02595D01*
X03057Y02573D01*
X03017Y02555D01*
X02975Y02541D01*
X02932Y02530D01*
X02888Y02523D01*
X02844Y02520D01*
X02800Y02521D01*
X02756Y02526D01*
X02713Y02535D01*
X02670Y02547D01*
X02629Y02564D01*
X02589Y02583D01*
X02552Y02607D01*
X02516Y02633D01*
X02483Y02663D01*
X02453Y02695D01*
X02426Y02730D01*
X02402Y02767D01*
X02381Y02806D01*
X02364Y02847D01*
X02351Y02889D01*
X02341Y02932D01*
X02335Y02976D01*
X02333Y03020D01*
X25359Y40546D02*
X25361Y40590D01*
X25367Y40634D01*
X25377Y40677D01*
X25390Y40719D01*
X25407Y40760D01*
X25428Y40799D01*
X25452Y40836D01*
X25479Y40871D01*
X25509Y40903D01*
X25542Y40933D01*
X25578Y40959D01*
X25615Y40983D01*
X25655Y41002D01*
X25696Y41019D01*
X25739Y41031D01*
X25782Y41040D01*
X25826Y41045D01*
X25870Y41046D01*
X25914Y41043D01*
X25958Y41036D01*
X26001Y41025D01*
X26043Y41011D01*
X26083Y40993D01*
X26122Y40971D01*
X26158Y40947D01*
X26192Y40919D01*
X26224Y40888D01*
X26253Y40854D01*
X26279Y40818D01*
X26301Y40780D01*
X26320Y40740D01*
X26335Y40698D01*
X26347Y40656D01*
X26355Y40612D01*
X26359Y40568D01*
X26359Y40524D01*
X26355Y40480D01*
X26347Y40436D01*
X26335Y40394D01*
X26320Y40352D01*
X26301Y40312D01*
X26279Y40274D01*
X26253Y40238D01*
X26224Y40204D01*
X26192Y40173D01*
X26158Y40145D01*
X26122Y40121D01*
X26083Y40099D01*
X26043Y40081D01*
X26001Y40067D01*
X25958Y40056D01*
X25914Y40049D01*
X25870Y40046D01*
X25826Y40047D01*
X25782Y40052D01*
X25739Y40061D01*
X25696Y40073D01*
X25655Y40090D01*
X25615Y40109D01*
X25578Y40133D01*
X25542Y40159D01*
X25509Y40189D01*
X25479Y40221D01*
X25452Y40256D01*
X25428Y40293D01*
X25407Y40332D01*
X25390Y40373D01*
X25377Y40415D01*
X25367Y40458D01*
X25361Y40502D01*
X25359Y40546D01*
M02*
