G75*
%MOMM*%
%OFA0B0*%
%FSLAX33Y33*%
%IPPOS*%
%LPD*%
%AMOC8*
5,1,8,0,0,1.08239X$1,22.5*
%
%ADD10C,0.152*%
%ADD11C,0.254*%
%ADD12C,0.203*%
%ADD13C,0.025*%
%ADD14C,0.127*%
D10*
X33612Y09274D02*
X31985Y09274D01*
X32527Y09816D01*
X31985Y10358D01*
X33612Y10358D01*
X32527Y11182D02*
X32527Y11724D01*
X32798Y11996D01*
X33612Y11996D01*
X33612Y11182D01*
X33340Y10911D01*
X33069Y11182D01*
X33069Y11996D01*
X34154Y13090D02*
X34154Y13362D01*
X33883Y13633D01*
X32527Y13633D01*
X32527Y12819D01*
X32798Y12548D01*
X33340Y12548D01*
X33612Y12819D01*
X33612Y13633D01*
X33612Y14185D02*
X33612Y14999D01*
X33340Y15270D01*
X33069Y14999D01*
X33069Y14456D01*
X32798Y14185D01*
X32527Y14456D01*
X32527Y15270D01*
X34154Y15822D02*
X32527Y15822D01*
X32527Y16636D01*
X32798Y16907D01*
X33340Y16907D01*
X33612Y16636D01*
X33612Y15822D01*
X33612Y17731D02*
X33612Y18273D01*
X33340Y18544D01*
X32798Y18544D01*
X32527Y18273D01*
X32527Y17731D01*
X32798Y17459D01*
X33340Y17459D01*
X33612Y17731D01*
X33612Y19368D02*
X33612Y19910D01*
X33340Y20181D01*
X32798Y20181D01*
X32527Y19910D01*
X32527Y19368D01*
X32798Y19097D01*
X33340Y19097D01*
X33612Y19368D01*
X33612Y21005D02*
X32256Y21005D01*
X31985Y21276D01*
X32798Y21276D02*
X32798Y20734D01*
X20955Y22993D02*
X20955Y02673D01*
X15113Y22993D02*
X15113Y02673D01*
X20955Y02673D01*
X20955Y22993D02*
X19050Y22993D01*
X15113Y22993D02*
X17018Y22993D01*
X17020Y22930D01*
X17026Y22868D01*
X17035Y22806D01*
X17049Y22745D01*
X17066Y22685D01*
X17087Y22626D01*
X17111Y22568D01*
X17139Y22512D01*
X17170Y22458D01*
X17205Y22406D01*
X17242Y22356D01*
X17283Y22309D01*
X17327Y22264D01*
X17373Y22221D01*
X17422Y22182D01*
X17473Y22146D01*
X17526Y22113D01*
X17581Y22084D01*
X17638Y22057D01*
X17696Y22035D01*
X17756Y22016D01*
X17817Y22001D01*
X17878Y21989D01*
X17940Y21981D01*
X18003Y21977D01*
X18065Y21977D01*
X18128Y21981D01*
X18190Y21989D01*
X18251Y22001D01*
X18312Y22016D01*
X18372Y22035D01*
X18430Y22057D01*
X18487Y22084D01*
X18542Y22113D01*
X18595Y22146D01*
X18646Y22182D01*
X18695Y22221D01*
X18741Y22264D01*
X18785Y22309D01*
X18826Y22356D01*
X18863Y22406D01*
X18898Y22458D01*
X18929Y22512D01*
X18957Y22568D01*
X18981Y22626D01*
X19002Y22685D01*
X19019Y22745D01*
X19033Y22806D01*
X19042Y22868D01*
X19048Y22930D01*
X19050Y22993D01*
D11*
X35774Y24224D02*
X35774Y25224D01*
X31274Y24724D02*
X30274Y24724D01*
X35274Y24724D02*
X36274Y24724D01*
X28860Y25724D02*
X27274Y25724D01*
X37688Y25724D02*
X39274Y25724D01*
X33860Y25724D02*
X32674Y25724D01*
X27274Y02724D02*
X39274Y02724D01*
X14351Y38989D02*
X14353Y39034D01*
X14359Y39078D01*
X14369Y39122D01*
X14382Y39165D01*
X14400Y39207D01*
X14421Y39246D01*
X14445Y39284D01*
X14473Y39319D01*
X14504Y39352D01*
X14537Y39382D01*
X14573Y39409D01*
X14612Y39433D01*
X14652Y39453D01*
X14693Y39469D01*
X14737Y39482D01*
X14781Y39491D01*
X14825Y39496D01*
X14870Y39497D01*
X14915Y39494D01*
X14959Y39487D01*
X15003Y39476D01*
X15046Y39461D01*
X15087Y39443D01*
X15126Y39421D01*
X15163Y39396D01*
X15198Y39368D01*
X15230Y39336D01*
X15259Y39302D01*
X15285Y39265D01*
X15308Y39227D01*
X15327Y39186D01*
X15343Y39144D01*
X15355Y39100D01*
X15363Y39056D01*
X15367Y39011D01*
X15367Y38967D01*
X15363Y38922D01*
X15355Y38878D01*
X15343Y38834D01*
X15327Y38792D01*
X15308Y38751D01*
X15285Y38713D01*
X15259Y38676D01*
X15230Y38642D01*
X15198Y38610D01*
X15163Y38582D01*
X15126Y38557D01*
X15087Y38535D01*
X15046Y38517D01*
X15003Y38502D01*
X14959Y38491D01*
X14915Y38484D01*
X14870Y38481D01*
X14825Y38482D01*
X14781Y38487D01*
X14737Y38496D01*
X14693Y38509D01*
X14652Y38525D01*
X14612Y38545D01*
X14573Y38569D01*
X14537Y38596D01*
X14504Y38626D01*
X14473Y38659D01*
X14445Y38694D01*
X14421Y38732D01*
X14400Y38771D01*
X14382Y38813D01*
X14369Y38856D01*
X14359Y38900D01*
X14353Y38944D01*
X14351Y38989D01*
D12*
X33909Y35814D02*
X35179Y35814D01*
X30024Y37084D02*
X30026Y37197D01*
X30032Y37311D01*
X30042Y37424D01*
X30056Y37536D01*
X30073Y37648D01*
X30095Y37760D01*
X30121Y37870D01*
X30150Y37980D01*
X30183Y38088D01*
X30220Y38196D01*
X30261Y38301D01*
X30305Y38406D01*
X30353Y38509D01*
X30404Y38610D01*
X30459Y38709D01*
X30518Y38806D01*
X30580Y38901D01*
X30645Y38994D01*
X30713Y39085D01*
X30784Y39173D01*
X30859Y39259D01*
X30936Y39342D01*
X31016Y39422D01*
X31099Y39499D01*
X31185Y39574D01*
X31273Y39645D01*
X31364Y39713D01*
X31457Y39778D01*
X31552Y39840D01*
X31649Y39899D01*
X31748Y39954D01*
X31849Y40005D01*
X31952Y40053D01*
X32057Y40097D01*
X32162Y40138D01*
X32270Y40175D01*
X32378Y40208D01*
X32488Y40237D01*
X32598Y40263D01*
X32710Y40285D01*
X32822Y40302D01*
X32934Y40316D01*
X33047Y40326D01*
X33161Y40332D01*
X33274Y40334D01*
X33387Y40332D01*
X33501Y40326D01*
X33614Y40316D01*
X33726Y40302D01*
X33838Y40285D01*
X33950Y40263D01*
X34060Y40237D01*
X34170Y40208D01*
X34278Y40175D01*
X34386Y40138D01*
X34491Y40097D01*
X34596Y40053D01*
X34699Y40005D01*
X34800Y39954D01*
X34899Y39899D01*
X34996Y39840D01*
X35091Y39778D01*
X35184Y39713D01*
X35275Y39645D01*
X35363Y39574D01*
X35449Y39499D01*
X35532Y39422D01*
X35612Y39342D01*
X35689Y39259D01*
X35764Y39173D01*
X35835Y39085D01*
X35903Y38994D01*
X35968Y38901D01*
X36030Y38806D01*
X36089Y38709D01*
X36144Y38610D01*
X36195Y38509D01*
X36243Y38406D01*
X36287Y38301D01*
X36328Y38196D01*
X36365Y38088D01*
X36398Y37980D01*
X36427Y37870D01*
X36453Y37760D01*
X36475Y37648D01*
X36492Y37536D01*
X36506Y37424D01*
X36516Y37311D01*
X36522Y37197D01*
X36524Y37084D01*
X36522Y36971D01*
X36516Y36857D01*
X36506Y36744D01*
X36492Y36632D01*
X36475Y36520D01*
X36453Y36408D01*
X36427Y36298D01*
X36398Y36188D01*
X36365Y36080D01*
X36328Y35972D01*
X36287Y35867D01*
X36243Y35762D01*
X36195Y35659D01*
X36144Y35558D01*
X36089Y35459D01*
X36030Y35362D01*
X35968Y35267D01*
X35903Y35174D01*
X35835Y35083D01*
X35764Y34995D01*
X35689Y34909D01*
X35612Y34826D01*
X35532Y34746D01*
X35449Y34669D01*
X35363Y34594D01*
X35275Y34523D01*
X35184Y34455D01*
X35091Y34390D01*
X34996Y34328D01*
X34899Y34269D01*
X34800Y34214D01*
X34699Y34163D01*
X34596Y34115D01*
X34491Y34071D01*
X34386Y34030D01*
X34278Y33993D01*
X34170Y33960D01*
X34060Y33931D01*
X33950Y33905D01*
X33838Y33883D01*
X33726Y33866D01*
X33614Y33852D01*
X33501Y33842D01*
X33387Y33836D01*
X33274Y33834D01*
X33161Y33836D01*
X33047Y33842D01*
X32934Y33852D01*
X32822Y33866D01*
X32710Y33883D01*
X32598Y33905D01*
X32488Y33931D01*
X32378Y33960D01*
X32270Y33993D01*
X32162Y34030D01*
X32057Y34071D01*
X31952Y34115D01*
X31849Y34163D01*
X31748Y34214D01*
X31649Y34269D01*
X31552Y34328D01*
X31457Y34390D01*
X31364Y34455D01*
X31273Y34523D01*
X31185Y34594D01*
X31099Y34669D01*
X31016Y34746D01*
X30936Y34826D01*
X30859Y34909D01*
X30784Y34995D01*
X30713Y35083D01*
X30645Y35174D01*
X30580Y35267D01*
X30518Y35362D01*
X30459Y35459D01*
X30404Y35558D01*
X30353Y35659D01*
X30305Y35762D01*
X30261Y35867D01*
X30220Y35972D01*
X30183Y36080D01*
X30150Y36188D01*
X30121Y36298D01*
X30095Y36408D01*
X30073Y36520D01*
X30056Y36632D01*
X30042Y36744D01*
X30032Y36857D01*
X30026Y36971D01*
X30024Y37084D01*
X04354Y18583D02*
X08854Y18583D01*
X08854Y07083D01*
X04354Y07083D01*
X04354Y18583D01*
X35814Y46482D02*
X30734Y46482D01*
X30734Y47244D01*
X30734Y48006D01*
X35814Y48006D01*
X35814Y47244D01*
X35814Y46482D01*
X30734Y47244D02*
X30480Y47244D01*
X35814Y47244D02*
X36068Y47244D01*
X35814Y42672D02*
X30734Y42672D01*
X30734Y43434D01*
X30734Y44196D01*
X35814Y44196D01*
X35814Y43434D01*
X35814Y42672D01*
X30734Y43434D02*
X30480Y43434D01*
X35814Y43434D02*
X36068Y43434D01*
X09652Y42545D02*
X09652Y46863D01*
X03556Y46863D02*
X03556Y42545D01*
X05588Y41656D02*
X07602Y41656D01*
X07632Y47752D02*
X05588Y47752D01*
X04826Y44704D02*
X04828Y44788D01*
X04834Y44872D01*
X04844Y44955D01*
X04858Y45038D01*
X04875Y45120D01*
X04897Y45201D01*
X04922Y45281D01*
X04951Y45360D01*
X04984Y45437D01*
X05021Y45513D01*
X05061Y45587D01*
X05104Y45659D01*
X05151Y45729D01*
X05201Y45796D01*
X05254Y45861D01*
X05310Y45924D01*
X05369Y45983D01*
X05431Y46040D01*
X05495Y46094D01*
X05562Y46145D01*
X05632Y46192D01*
X05703Y46237D01*
X05776Y46278D01*
X05852Y46315D01*
X05928Y46349D01*
X06007Y46379D01*
X06087Y46405D01*
X06168Y46428D01*
X06249Y46446D01*
X06332Y46461D01*
X06415Y46472D01*
X06499Y46479D01*
X06583Y46482D01*
X06667Y46481D01*
X06751Y46476D01*
X06834Y46467D01*
X06917Y46454D01*
X07000Y46437D01*
X07081Y46417D01*
X07161Y46392D01*
X07241Y46364D01*
X07318Y46332D01*
X07394Y46297D01*
X07469Y46258D01*
X07541Y46215D01*
X07611Y46169D01*
X07679Y46120D01*
X07745Y46068D01*
X07808Y46012D01*
X07869Y45954D01*
X07926Y45893D01*
X07981Y45829D01*
X08032Y45763D01*
X08081Y45694D01*
X08126Y45623D01*
X08168Y45550D01*
X08206Y45475D01*
X08241Y45399D01*
X08272Y45321D01*
X08299Y45241D01*
X08322Y45161D01*
X08342Y45079D01*
X08358Y44997D01*
X08370Y44914D01*
X08378Y44830D01*
X08382Y44746D01*
X08382Y44662D01*
X08378Y44578D01*
X08370Y44494D01*
X08358Y44411D01*
X08342Y44329D01*
X08322Y44247D01*
X08299Y44167D01*
X08272Y44087D01*
X08241Y44009D01*
X08206Y43933D01*
X08168Y43858D01*
X08126Y43785D01*
X08081Y43714D01*
X08032Y43645D01*
X07981Y43579D01*
X07926Y43515D01*
X07869Y43454D01*
X07808Y43396D01*
X07745Y43340D01*
X07679Y43288D01*
X07611Y43239D01*
X07541Y43193D01*
X07469Y43150D01*
X07394Y43111D01*
X07318Y43076D01*
X07241Y43044D01*
X07161Y43016D01*
X07081Y42991D01*
X07000Y42971D01*
X06917Y42954D01*
X06834Y42941D01*
X06751Y42932D01*
X06667Y42927D01*
X06583Y42926D01*
X06499Y42929D01*
X06415Y42936D01*
X06332Y42947D01*
X06249Y42962D01*
X06168Y42980D01*
X06087Y43003D01*
X06007Y43029D01*
X05928Y43059D01*
X05852Y43093D01*
X05776Y43130D01*
X05703Y43171D01*
X05632Y43216D01*
X05562Y43263D01*
X05495Y43314D01*
X05431Y43368D01*
X05369Y43425D01*
X05310Y43484D01*
X05254Y43547D01*
X05201Y43612D01*
X05151Y43679D01*
X05104Y43749D01*
X05061Y43821D01*
X05021Y43895D01*
X04984Y43971D01*
X04951Y44048D01*
X04922Y44127D01*
X04897Y44207D01*
X04875Y44288D01*
X04858Y44370D01*
X04844Y44453D01*
X04834Y44536D01*
X04828Y44620D01*
X04826Y44704D01*
X04429Y24919D02*
X08779Y24919D01*
X08779Y36549D01*
X04429Y36549D01*
X04429Y24919D01*
X20574Y28194D02*
X20574Y38354D01*
X15494Y38354D02*
X15494Y28194D01*
X20574Y28194D01*
X20574Y38354D02*
X19050Y38354D01*
X15494Y38354D02*
X17018Y38354D01*
X17020Y38291D01*
X17026Y38229D01*
X17035Y38167D01*
X17049Y38106D01*
X17066Y38046D01*
X17087Y37987D01*
X17111Y37929D01*
X17139Y37873D01*
X17170Y37819D01*
X17205Y37767D01*
X17242Y37717D01*
X17283Y37670D01*
X17327Y37625D01*
X17373Y37582D01*
X17422Y37543D01*
X17473Y37507D01*
X17526Y37474D01*
X17581Y37445D01*
X17638Y37418D01*
X17696Y37396D01*
X17756Y37377D01*
X17817Y37362D01*
X17878Y37350D01*
X17940Y37342D01*
X18003Y37338D01*
X18065Y37338D01*
X18128Y37342D01*
X18190Y37350D01*
X18251Y37362D01*
X18312Y37377D01*
X18372Y37396D01*
X18430Y37418D01*
X18487Y37445D01*
X18542Y37474D01*
X18595Y37507D01*
X18646Y37543D01*
X18695Y37582D01*
X18741Y37625D01*
X18785Y37670D01*
X18826Y37717D01*
X18863Y37767D01*
X18898Y37819D01*
X18929Y37873D01*
X18957Y37929D01*
X18981Y37987D01*
X19002Y38046D01*
X19019Y38106D01*
X19033Y38167D01*
X19042Y38229D01*
X19048Y38291D01*
X19050Y38354D01*
D13*
X33555Y35357D02*
X33491Y35421D01*
X33364Y35421D01*
X33300Y35357D01*
X33300Y35103D01*
X33364Y35039D01*
X33491Y35039D01*
X33555Y35103D01*
X33674Y35294D02*
X33802Y35421D01*
X33802Y35039D01*
X33929Y35039D02*
X33674Y35039D01*
X35078Y45580D02*
X35078Y45962D01*
X35269Y45962D01*
X35333Y45898D01*
X35333Y45771D01*
X35269Y45707D01*
X35078Y45707D01*
X35205Y45707D02*
X35333Y45580D01*
X35452Y45835D02*
X35580Y45962D01*
X35580Y45580D01*
X35707Y45580D02*
X35452Y45580D01*
X35078Y41770D02*
X35078Y42152D01*
X35269Y42152D01*
X35333Y42088D01*
X35333Y41961D01*
X35269Y41897D01*
X35078Y41897D01*
X35205Y41897D02*
X35333Y41770D01*
X35707Y41770D02*
X35452Y41770D01*
X35707Y42025D01*
X35707Y42088D01*
X35643Y42152D01*
X35516Y42152D01*
X35452Y42088D01*
D14*
X09842Y17115D02*
X10528Y17115D01*
X10528Y17572D01*
X10071Y17863D02*
X09842Y18092D01*
X10528Y18092D01*
X10528Y17863D02*
X10528Y18321D01*
X06400Y14924D02*
X06286Y14809D01*
X06286Y14580D01*
X06400Y14466D01*
X06858Y14466D01*
X06972Y14580D01*
X06972Y14809D01*
X06858Y14924D01*
X06972Y15329D02*
X06972Y15558D01*
X06858Y15672D01*
X06629Y15672D01*
X06515Y15558D01*
X06515Y15329D01*
X06629Y15214D01*
X06858Y15214D01*
X06972Y15329D01*
X06515Y15963D02*
X06515Y16077D01*
X06972Y16077D01*
X06972Y15963D02*
X06972Y16192D01*
X06286Y16077D02*
X06172Y16077D01*
X06286Y16462D02*
X06286Y16576D01*
X06972Y16576D01*
X06972Y16462D02*
X06972Y16691D01*
X13652Y48832D02*
X13652Y47688D01*
X14415Y47688D01*
X15585Y48832D02*
X14822Y48832D01*
X14822Y47688D01*
X15585Y47688D01*
X15203Y48260D02*
X14822Y48260D01*
X15991Y48832D02*
X15991Y47688D01*
X16563Y47688D01*
X16754Y47879D01*
X16754Y48642D01*
X16563Y48832D01*
X15991Y48832D01*
X17161Y48451D02*
X17542Y48832D01*
X17542Y47688D01*
X17161Y47688D02*
X17923Y47688D01*
X20003Y48832D02*
X20003Y47688D01*
X20765Y47688D01*
X21935Y48832D02*
X21172Y48832D01*
X21172Y47688D01*
X21935Y47688D01*
X21553Y48260D02*
X21172Y48260D01*
X22341Y48832D02*
X22341Y47688D01*
X22913Y47688D01*
X23104Y47879D01*
X23104Y48642D01*
X22913Y48832D01*
X22341Y48832D01*
X24273Y47688D02*
X23511Y47688D01*
X24273Y48451D01*
X24273Y48642D01*
X24083Y48832D01*
X23701Y48832D01*
X23511Y48642D01*
X09161Y30558D02*
X09080Y30478D01*
X09080Y30317D01*
X09161Y30236D01*
X09241Y30236D01*
X09322Y30317D01*
X09322Y30478D01*
X09402Y30558D01*
X09483Y30558D01*
X09563Y30478D01*
X09563Y30317D01*
X09483Y30236D01*
X09161Y30797D02*
X09080Y30878D01*
X09080Y31039D01*
X09161Y31120D01*
X09241Y31120D01*
X09322Y31039D01*
X09322Y30958D01*
X09322Y31039D02*
X09402Y31120D01*
X09483Y31120D01*
X09563Y31039D01*
X09563Y30878D01*
X09483Y30797D01*
X17536Y39536D02*
X17536Y39133D01*
X17617Y39053D01*
X17778Y39053D01*
X17858Y39133D01*
X17858Y39536D01*
X18420Y39053D02*
X18098Y39053D01*
X18420Y39375D01*
X18420Y39455D01*
X18339Y39536D01*
X18178Y39536D01*
X18098Y39455D01*
M02*
