%
M48
METRIC,TZ,000.000
T01C0.700000
T02C0.812800
T03C0.900000
T04C1.000000
T05C1.016000
T06C1.200000
%
T01
X34544Y37084
X32004Y37084
T02
X14224Y21723
X14224Y19183
X14224Y6483
X14224Y3943
X14224Y16643
X14224Y14103
X14224Y9023
X14224Y11563
X21844Y3943
X21844Y6483
X21844Y9023
X21844Y11563
X21844Y14103
X21844Y16643
X21844Y19183
X21844Y21723
X14224Y44704
X16764Y44704
X20574Y44704
X23114Y44704
X14224Y37084
X14224Y34544
X21844Y34544
X21844Y37084
X14224Y32004
X14224Y29464
X21844Y32004
X21844Y29464
T03
X37084Y47244
X29464Y47244
X37084Y43434
X29464Y43434
T04
X2833Y3020
X25859Y40546
T05
X8865Y47955
X8865Y41453
X4343Y47955
X4343Y41453
X6604Y28194
X6604Y30734
X6604Y33274
T06
X6604Y20453
X6604Y5213
M30
